REM DIRINDEX 1\2,1\3,1\4,1\5
REM DIRNAME cjc004,folder01,folder02,folder03,folder04
TITLE ""
FILE "1Q_t_0532-0541.mp3" MP3
  TRACK 01 AUDIO
    TITLE "3:cjc004_2498"
    INDEX 01 00:00:00
  TRACK 02 AUDIO
    TITLE "0:"
    INDEX 01 00:00:72
  TRACK 03 AUDIO
    TITLE "4:cjc004_2499"
    INDEX 01 00:01:24
  TRACK 04 AUDIO
    TITLE "0:"
    INDEX 01 00:02:40
  TRACK 05 AUDIO
    TITLE "5:cjc004_2500"
    INDEX 01 00:02:69
  TRACK 06 AUDIO
    TITLE "0:"
    INDEX 01 00:08:58
  TRACK 07 AUDIO
    TITLE "3:cjc004_2501"
    INDEX 01 00:09:44
  TRACK 08 AUDIO
    TITLE "0:"
    INDEX 01 00:11:03
  TRACK 09 AUDIO
    TITLE "4:cjc004_2502"
    INDEX 01 00:11:31
  TRACK 10 AUDIO
    TITLE "0:"
    INDEX 01 00:12:40
  TRACK 11 AUDIO
    TITLE "5:cjc004_2503"
    INDEX 01 00:12:69
  TRACK 12 AUDIO
    TITLE "0:"
    INDEX 01 00:17:16
  TRACK 13 AUDIO
    TITLE "3:cjc004_2504"
    INDEX 01 00:18:01
  TRACK 14 AUDIO
    TITLE "0:"
    INDEX 01 00:19:24
  TRACK 15 AUDIO
    TITLE "4:cjc004_2505"
    INDEX 01 00:19:48
  TRACK 16 AUDIO
    TITLE "0:"
    INDEX 01 00:21:13
  TRACK 17 AUDIO
    TITLE "5:cjc004_2506"
    INDEX 01 00:21:39
  TRACK 18 AUDIO
    TITLE "0:"
    INDEX 01 00:25:54
  TRACK 19 AUDIO
    TITLE "3:cjc004_2507"
    INDEX 01 00:26:34
  TRACK 20 AUDIO
    TITLE "0:"
    INDEX 01 00:27:55
  TRACK 21 AUDIO
    TITLE "4:cjc004_2508"
    INDEX 01 00:28:04
  TRACK 22 AUDIO
    TITLE "0:"
    INDEX 01 00:29:42
  TRACK 23 AUDIO
    TITLE "5:cjc004_2509"
    INDEX 01 00:29:68
  TRACK 24 AUDIO
    TITLE "0:"
    INDEX 01 00:34:51
  TRACK 25 AUDIO
    TITLE "3:cjc004_2510"
    INDEX 01 00:35:25
  TRACK 26 AUDIO
    TITLE "0:"
    INDEX 01 00:36:40
  TRACK 27 AUDIO
    TITLE "4:cjc004_2511"
    INDEX 01 00:36:60
  TRACK 28 AUDIO
    TITLE "0:"
    INDEX 01 00:38:16
  TRACK 29 AUDIO
    TITLE "5:cjc004_2512"
    INDEX 01 00:38:41
  TRACK 30 AUDIO
    TITLE "0:"
    INDEX 01 00:44:24
  TRACK 31 AUDIO
    TITLE "3:cjc004_2513"
    INDEX 01 00:45:00
  TRACK 32 AUDIO
    TITLE "0:"
    INDEX 01 00:46:31
  TRACK 33 AUDIO
    TITLE "4:cjc004_2514"
    INDEX 01 00:46:60
  TRACK 34 AUDIO
    TITLE "0:"
    INDEX 01 00:48:00
  TRACK 35 AUDIO
    TITLE "5:cjc004_2515"
    INDEX 01 00:48:28
  TRACK 36 AUDIO
    TITLE "0:"
    INDEX 01 00:52:49
  TRACK 37 AUDIO
    TITLE "3:cjc004_2516"
    INDEX 01 00:53:25
  TRACK 38 AUDIO
    TITLE "0:"
    INDEX 01 00:54:46
  TRACK 39 AUDIO
    TITLE "4:cjc004_2517"
    INDEX 01 00:55:01
  TRACK 40 AUDIO
    TITLE "0:"
    INDEX 01 00:56:29
  TRACK 41 AUDIO
    TITLE "5:cjc004_2518"
    INDEX 01 00:56:53
  TRACK 42 AUDIO
    TITLE "0:"
    INDEX 01 01:01:38
  TRACK 43 AUDIO
    TITLE "3:cjc004_2519"
    INDEX 01 01:02:14
  TRACK 44 AUDIO
    TITLE "0:"
    INDEX 01 01:03:27
  TRACK 45 AUDIO
    TITLE "4:cjc004_2520"
    INDEX 01 01:03:53
  TRACK 46 AUDIO
    TITLE "0:"
    INDEX 01 01:05:28
  TRACK 47 AUDIO
    TITLE "5:cjc004_2521"
    INDEX 01 01:05:56
  TRACK 48 AUDIO
    TITLE "0:"
    INDEX 01 01:10:30
  TRACK 49 AUDIO
    TITLE "3:cjc004_2522"
    INDEX 01 01:11:09
  TRACK 50 AUDIO
    TITLE "0:"
    INDEX 01 01:12:26
  TRACK 51 AUDIO
    TITLE "4:cjc004_2523"
    INDEX 01 01:12:50
  TRACK 52 AUDIO
    TITLE "0:"
    INDEX 01 01:15:01
  TRACK 53 AUDIO
    TITLE "5:cjc004_2524"
    INDEX 01 01:15:27
  TRACK 54 AUDIO
    TITLE "0:"
    INDEX 01 01:20:08
  TRACK 55 AUDIO
    TITLE "3:cjc004_2525"
    INDEX 01 01:20:63
  TRACK 56 AUDIO
    TITLE "0:"
    INDEX 01 01:22:13
  TRACK 57 AUDIO
    TITLE "4:cjc004_2526"
    INDEX 01 01:22:44
  TRACK 58 AUDIO
    TITLE "0:"
    INDEX 01 01:23:71
  TRACK 59 AUDIO
    TITLE "5:cjc004_2527"
    INDEX 01 01:24:18
  TRACK 60 AUDIO
    TITLE "0:"
    INDEX 01 01:29:27
